<svg width="32" height="32" viewBox="0 0 32 32" fill="none" xmlns="http://www.w3.org/2000/svg">
<path fill-rule="evenodd" clip-rule="evenodd" d="M16 0C24.8365 0 32 7.16346 32 16C32 24.8365 24.8365 32 16 32C7.16346 32 0 24.8365 0 16C0 7.16346 7.16346 0 16 0Z" fill="url(#paint0_linear_2081_511)"/>
<path d="M18.079 31.8658V19.5071H21.5632L22.025 15.1574H18.079L18.0849 12.9802C18.0849 11.8457 18.1927 11.2381 19.8222 11.2381H22.0006V6.8877H18.5157C14.3296 6.8877 12.8565 8.99765 12.8565 12.5465V15.1577H10.2471V19.5078H12.8565V31.6905C13.8731 31.8931 14.924 32.0001 16.0001 32.0001C16.6953 32.0001 17.3897 31.9552 18.079 31.8658Z" fill="white"/>
<defs>
<linearGradient id="paint0_linear_2081_511" x1="16" y1="-0.291536" x2="16" y2="33.3645" gradientUnits="userSpaceOnUse">
<stop stop-color="#00B2FF"/>
<stop offset="1" stop-color="#006AFF"/>
</linearGradient>
</defs>
</svg>
