<svg width="20" height="20" viewBox="0 0 20 20" fill="none" xmlns="http://www.w3.org/2000/svg">
<g clip-path="url(#clip0_2081_928)">
<path d="M3.3335 3.33337H8.3335V8.33337H3.3335V3.33337Z" stroke="#5A5A5A" stroke-width="1.5" stroke-linecap="round" stroke-linejoin="round"/>
<path d="M11.6665 3.33337H16.6665V8.33337H11.6665V3.33337Z" stroke="#5A5A5A" stroke-width="1.5" stroke-linecap="round" stroke-linejoin="round"/>
<path d="M3.3335 11.6666H8.3335V16.6666H3.3335V11.6666Z" stroke="#5A5A5A" stroke-width="1.5" stroke-linecap="round" stroke-linejoin="round"/>
<path d="M11.6665 14.1666C11.6665 14.8297 11.9299 15.4656 12.3987 15.9344C12.8676 16.4032 13.5035 16.6666 14.1665 16.6666C14.8295 16.6666 15.4654 16.4032 15.9343 15.9344C16.4031 15.4656 16.6665 14.8297 16.6665 14.1666C16.6665 13.5036 16.4031 12.8677 15.9343 12.3989C15.4654 11.93 14.8295 11.6666 14.1665 11.6666C13.5035 11.6666 12.8676 11.93 12.3987 12.3989C11.9299 12.8677 11.6665 13.5036 11.6665 14.1666Z" stroke="#5A5A5A" stroke-width="1.5" stroke-linecap="round" stroke-linejoin="round"/>
</g>
<defs>
<clipPath id="clip0_2081_928">
<rect width="20" height="20" fill="white"/>
</clipPath>
</defs>
</svg>
