<svg width="20" height="20" viewBox="0 0 20 20" fill="none" xmlns="http://www.w3.org/2000/svg">
<g opacity="0.7" clip-path="url(#clip0_2081_941)">
<path d="M10 11.6666V17.5" stroke="#131313" stroke-width="1.5" stroke-linecap="round" stroke-linejoin="round"/>
<path d="M7.5 15H12.5" stroke="#131313" stroke-width="1.5" stroke-linecap="round" stroke-linejoin="round"/>
<path d="M9.99984 5C10.8839 5 11.7317 5.35119 12.3569 5.97631C12.982 6.60143 13.3332 7.44928 13.3332 8.33333C13.3332 9.21739 12.982 10.0652 12.3569 10.6904C11.7317 11.3155 10.8839 11.6667 9.99984 11.6667C9.11578 11.6667 8.26794 11.3155 7.64281 10.6904C7.01769 10.0652 6.6665 9.21739 6.6665 8.33333C6.6665 7.44928 7.01769 6.60143 7.64281 5.97631C8.26794 5.35119 9.11578 5 9.99984 5Z" stroke="#131313" stroke-width="1.5" stroke-linecap="round" stroke-linejoin="round"/>
<path d="M12.5 2.5C12.5 3.16304 12.2366 3.79893 11.7678 4.26777C11.2989 4.73661 10.663 5 10 5C9.33696 5 8.70107 4.73661 8.23223 4.26777C7.76339 3.79893 7.5 3.16304 7.5 2.5" stroke="#131313" stroke-width="1.5" stroke-linecap="round" stroke-linejoin="round"/>
</g>
<defs>
<clipPath id="clip0_2081_941">
<rect width="20" height="20" fill="white"/>
</clipPath>
</defs>
</svg>
