<svg width="20" height="20" viewBox="0 0 20 20" fill="none" xmlns="http://www.w3.org/2000/svg">
<g clip-path="url(#clip0_2081_949)">
<path d="M13.9168 6.66667C13.751 6.19603 13.448 5.7858 13.0471 5.48878C12.6461 5.19176 12.1654 5.02153 11.6668 5H8.3335C7.67045 5 7.03457 5.26339 6.56573 5.73223C6.09689 6.20107 5.8335 6.83696 5.8335 7.5C5.8335 8.16304 6.09689 8.79893 6.56573 9.26777C7.03457 9.73661 7.67045 10 8.3335 10H11.6668C12.3299 10 12.9658 10.2634 13.4346 10.7322C13.9034 11.2011 14.1668 11.837 14.1668 12.5C14.1668 13.163 13.9034 13.7989 13.4346 14.2678C12.9658 14.7366 12.3299 15 11.6668 15H8.3335C7.83495 14.9785 7.35425 14.8082 6.95327 14.5112C6.55229 14.2142 6.24937 13.804 6.0835 13.3333" stroke="#5A5A5A" stroke-width="1.5" stroke-linecap="round" stroke-linejoin="round"/>
<path d="M10 2.5V5M10 15V17.5" stroke="#5A5A5A" stroke-width="1.5" stroke-linecap="round" stroke-linejoin="round"/>
</g>
<defs>
<clipPath id="clip0_2081_949">
<rect width="20" height="20" fill="white"/>
</clipPath>
</defs>
</svg>
