<svg width="47" height="32" viewBox="0 0 47 32" fill="none" xmlns="http://www.w3.org/2000/svg">
<path fill-rule="evenodd" clip-rule="evenodd" d="M45.7369 4.9964C45.2133 3.03268 43.6642 1.48374 41.6933 0.952823C38.1297 0 23.8316 0 23.8316 0C23.8316 0 9.54071 0 5.96979 0.952823C4.00626 1.47641 2.45712 3.02554 1.92621 4.9964C0.973389 8.56 0.973389 15.9999 0.973389 15.9999C0.973389 15.9999 0.973389 23.44 1.92621 27.0036C2.44979 28.9673 3.99893 30.5163 5.96979 31.0472C9.54071 32 23.8316 32 23.8316 32C23.8316 32 38.1297 32 41.6933 31.0472C43.657 30.5236 45.206 28.9745 45.7369 27.0036C46.6897 23.44 46.6897 16.0001 46.6897 16.0001C46.6897 16.0001 46.6897 8.56 45.7369 4.9964Z" fill="#FF0000"/>
<path fill-rule="evenodd" clip-rule="evenodd" d="M19.2644 22.8582L31.1407 15.9999L19.2644 9.14185V22.8582Z" fill="white"/>
</svg>
